<svg width="382" height="51" viewBox="0 0 382 51" fill="none" xmlns="http://www.w3.org/2000/svg">
<g filter="url(#filter0_d)">
<path d="M23.64 34H20.76V13.36C20.76 13.04 20.6 12.88 20.28 12.88H15.96C15.64 12.88 15.48 13.04 15.48 13.36V34H12.6V13.36C12.6 13.04 12.44 12.88 12.12 12.88H7.8C7.48 12.88 7.32 13.04 7.32 13.36V34H4.44V12.4C4.44 11.728 4.664 11.168 5.112 10.72C5.592 10.24 6.168 10 6.84 10H12.792C13.048 10 13.256 10.16 13.416 10.48C13.608 10.8 13.816 10.96 14.04 10.96C14.296 10.96 14.536 10.8 14.76 10.48C14.984 10.16 15.224 10 15.48 10H21.24C21.912 10 22.472 10.24 22.92 10.72C23.4 11.168 23.64 11.728 23.64 12.4V34ZM44.7581 20.08C44.7581 20.752 44.5181 21.296 44.0381 21.712C43.5901 22.096 43.0301 22.352 42.3581 22.48L30.8381 24.4C30.5181 24.464 30.3581 24.624 30.3581 24.88V30.64C30.3581 30.96 30.5181 31.12 30.8381 31.12H44.7581V34H29.8781C29.2061 34 28.6301 33.776 28.1501 33.328C27.7021 32.848 27.4781 32.272 27.4781 31.6V12.4C27.4781 11.728 27.7021 11.168 28.1501 10.72C28.6301 10.24 29.2061 10 29.8781 10H42.3581C43.0301 10 43.5901 10.24 44.0381 10.72C44.5181 11.168 44.7581 11.728 44.7581 12.4V20.08ZM30.8381 12.88C30.5181 12.88 30.3581 13.04 30.3581 13.36V21.04C30.3581 21.2 30.3901 21.328 30.4541 21.424C30.5501 21.52 30.6781 21.552 30.8381 21.52L41.3981 19.744C41.7181 19.68 41.8781 19.52 41.8781 19.264V13.36C41.8781 13.04 41.7181 12.88 41.3981 12.88H30.8381ZM66.8363 34H63.9563V13.36C63.9563 13.04 63.7963 12.88 63.4763 12.88H52.9163C52.5963 12.88 52.4363 13.04 52.4363 13.36V34H49.5563V12.4C49.5563 11.728 49.7803 11.168 50.2283 10.72C50.7083 10.24 51.2843 10 51.9563 10H64.4363C65.1083 10 65.6683 10.24 66.1163 10.72C66.5963 11.168 66.8363 11.728 66.8363 12.4V34ZM88.4344 12.88H77.8744C77.5544 12.88 77.3944 13.04 77.3944 13.36V30.64C77.3944 30.96 77.5544 31.12 77.8744 31.12H90.8344V34H76.9144C76.2424 34 75.6664 33.776 75.1864 33.328C74.7384 32.848 74.5144 32.272 74.5144 31.6V13.36C74.5144 13.04 74.3544 12.88 74.0344 12.88H69.7144V10H74.0344C74.3544 10 74.5144 9.84 74.5144 9.52V5.2H77.3944V9.52C77.3944 9.84 77.5544 10 77.8744 10H88.4344V12.88ZM110.993 31.6C110.993 32.272 110.753 32.848 110.273 33.328C109.825 33.776 109.265 34 108.593 34H96.1125C95.4405 34 94.8645 33.776 94.3845 33.328C93.9365 32.848 93.7125 32.272 93.7125 31.6V23.92C93.7125 23.248 93.9365 22.72 94.3845 22.336C94.8645 21.92 95.4405 21.648 96.1125 21.52L107.633 19.6C107.953 19.536 108.113 19.376 108.113 19.12V13.36C108.113 13.04 107.953 12.88 107.633 12.88H97.0725C96.7525 12.88 96.5925 13.04 96.5925 13.36V17.2H93.7125V12.4C93.7125 11.728 93.9365 11.168 94.3845 10.72C94.8645 10.24 95.4405 10 96.1125 10H108.593C109.265 10 109.825 10.24 110.273 10.72C110.753 11.168 110.993 11.728 110.993 12.4V31.6ZM97.0725 24.256C96.7525 24.32 96.5925 24.48 96.5925 24.736V30.64C96.5925 30.96 96.7525 31.12 97.0725 31.12H107.633C107.953 31.12 108.113 30.96 108.113 30.64V22.96C108.113 22.8 108.065 22.672 107.969 22.576C107.905 22.48 107.793 22.448 107.633 22.48L97.0725 24.256ZM125.871 30.64C125.871 30.96 126.031 31.12 126.351 31.12H133.071V34H115.791V31.12H122.511C122.831 31.12 122.991 30.96 122.991 30.64V3.76C122.991 3.44 122.831 3.28 122.511 3.28H116.271V0.399998H123.471C124.143 0.399998 124.703 0.639997 125.151 1.12C125.631 1.568 125.871 2.128 125.871 2.8V30.64ZM157.549 42.16H135.469V40.24H157.549V42.16ZM170.027 5.2H167.147V0.399998H170.027V5.2ZM170.027 30.64C170.027 30.96 170.187 31.12 170.507 31.12H177.227V34H159.947V31.12H166.667C166.987 31.12 167.147 30.96 167.147 30.64V13.36C167.147 13.04 166.987 12.88 166.667 12.88H160.427V10H167.627C168.299 10 168.859 10.24 169.307 10.72C169.787 11.168 170.027 11.728 170.027 12.4V30.64ZM199.305 17.2H196.425V13.36C196.425 13.04 196.265 12.88 195.945 12.88H185.385C185.065 12.88 184.905 13.04 184.905 13.36V19.12C184.905 19.376 185.065 19.536 185.385 19.6L196.905 21.52C197.577 21.616 198.137 21.872 198.585 22.288C199.065 22.704 199.305 23.248 199.305 23.92V31.6C199.305 32.272 199.065 32.848 198.585 33.328C198.137 33.776 197.577 34 196.905 34H182.025V31.12H195.945C196.265 31.12 196.425 30.96 196.425 30.64V24.88C196.425 24.56 196.265 24.4 195.945 24.4L184.425 22.48C183.753 22.384 183.177 22.128 182.697 21.712C182.249 21.296 182.025 20.752 182.025 20.08V12.4C182.025 11.728 182.249 11.168 182.697 10.72C183.177 10.24 183.753 10 184.425 10H196.905C197.577 10 198.137 10.24 198.585 10.72C199.065 11.168 199.305 11.728 199.305 12.4V17.2ZM221.383 17.2H218.503V13.36C218.503 13.04 218.343 12.88 218.023 12.88H207.463C207.143 12.88 206.983 13.04 206.983 13.36V19.12C206.983 19.376 207.143 19.536 207.463 19.6L218.983 21.52C219.655 21.616 220.215 21.872 220.663 22.288C221.143 22.704 221.383 23.248 221.383 23.92V31.6C221.383 32.272 221.143 32.848 220.663 33.328C220.215 33.776 219.655 34 218.983 34H204.103V31.12H218.023C218.343 31.12 218.503 30.96 218.503 30.64V24.88C218.503 24.56 218.343 24.4 218.023 24.4L206.503 22.48C205.831 22.384 205.255 22.128 204.775 21.712C204.327 21.296 204.103 20.752 204.103 20.08V12.4C204.103 11.728 204.327 11.168 204.775 10.72C205.255 10.24 205.831 10 206.503 10H218.983C219.655 10 220.215 10.24 220.663 10.72C221.143 11.168 221.383 11.728 221.383 12.4V17.2ZM243.461 31.6C243.461 32.272 243.221 32.848 242.741 33.328C242.293 33.776 241.733 34 241.061 34H228.581C227.909 34 227.333 33.776 226.853 33.328C226.405 32.848 226.181 32.272 226.181 31.6V10H229.061V30.64C229.061 30.96 229.221 31.12 229.541 31.12H240.101C240.421 31.12 240.581 30.96 240.581 30.64V10H243.461V31.6ZM265.539 20.08C265.539 20.752 265.299 21.296 264.819 21.712C264.371 22.096 263.811 22.352 263.139 22.48L251.619 24.4C251.299 24.464 251.139 24.624 251.139 24.88V30.64C251.139 30.96 251.299 31.12 251.619 31.12H265.539V34H250.659C249.987 34 249.411 33.776 248.931 33.328C248.483 32.848 248.259 32.272 248.259 31.6V12.4C248.259 11.728 248.483 11.168 248.931 10.72C249.411 10.24 249.987 10 250.659 10H263.139C263.811 10 264.371 10.24 264.819 10.72C265.299 11.168 265.539 11.728 265.539 12.4V20.08ZM251.619 12.88C251.299 12.88 251.139 13.04 251.139 13.36V21.04C251.139 21.2 251.171 21.328 251.235 21.424C251.331 21.52 251.459 21.552 251.619 21.52L262.179 19.744C262.499 19.68 262.659 19.52 262.659 19.264V13.36C262.659 13.04 262.499 12.88 262.179 12.88H251.619ZM287.618 17.2H284.738V13.36C284.738 13.04 284.578 12.88 284.258 12.88H273.698C273.378 12.88 273.218 13.04 273.218 13.36V19.12C273.218 19.376 273.378 19.536 273.698 19.6L285.218 21.52C285.89 21.616 286.45 21.872 286.898 22.288C287.378 22.704 287.618 23.248 287.618 23.92V31.6C287.618 32.272 287.378 32.848 286.898 33.328C286.45 33.776 285.89 34 285.218 34H270.338V31.12H284.258C284.578 31.12 284.738 30.96 284.738 30.64V24.88C284.738 24.56 284.578 24.4 284.258 24.4L272.738 22.48C272.066 22.384 271.49 22.128 271.01 21.712C270.562 21.296 270.338 20.752 270.338 20.08V12.4C270.338 11.728 270.562 11.168 271.01 10.72C271.49 10.24 272.066 10 272.738 10H285.218C285.89 10 286.45 10.24 286.898 10.72C287.378 11.168 287.618 11.728 287.618 12.4V17.2ZM302.496 34H299.616V29.2H302.496V34ZM331.774 34H328.894V13.36C328.894 13.04 328.734 12.88 328.414 12.88H317.854C317.534 12.88 317.374 13.04 317.374 13.36V34H314.494V12.4C314.494 11.728 314.718 11.168 315.166 10.72C315.646 10.24 316.222 10 316.894 10H329.374C330.046 10 330.606 10.24 331.054 10.72C331.534 11.168 331.774 11.728 331.774 12.4V34ZM353.852 20.08C353.852 20.752 353.612 21.296 353.132 21.712C352.684 22.096 352.124 22.352 351.452 22.48L339.932 24.4C339.612 24.464 339.452 24.624 339.452 24.88V30.64C339.452 30.96 339.612 31.12 339.932 31.12H353.852V34H338.972C338.3 34 337.724 33.776 337.244 33.328C336.796 32.848 336.572 32.272 336.572 31.6V12.4C336.572 11.728 336.796 11.168 337.244 10.72C337.724 10.24 338.3 10 338.972 10H351.452C352.124 10 352.684 10.24 353.132 10.72C353.612 11.168 353.852 11.728 353.852 12.4V20.08ZM339.932 12.88C339.612 12.88 339.452 13.04 339.452 13.36V21.04C339.452 21.2 339.484 21.328 339.548 21.424C339.644 21.52 339.772 21.552 339.932 21.52L350.492 19.744C350.812 19.68 350.972 19.52 350.972 19.264V13.36C350.972 13.04 350.812 12.88 350.492 12.88H339.932ZM375.45 12.88H364.89C364.57 12.88 364.41 13.04 364.41 13.36V30.64C364.41 30.96 364.57 31.12 364.89 31.12H377.85V34H363.93C363.258 34 362.682 33.776 362.202 33.328C361.754 32.848 361.53 32.272 361.53 31.6V13.36C361.53 13.04 361.37 12.88 361.05 12.88H356.73V10H361.05C361.37 10 361.53 9.84 361.53 9.52V5.2H364.41V9.52C364.41 9.84 364.57 10 364.89 10H375.45V12.88Z" fill="#48E0CB"/>
</g>
<defs>
<filter id="filter0_d" x="0.439941" y="0.400024" width="381.41" height="49.76" filterUnits="userSpaceOnUse" color-interpolation-filters="sRGB">
<feFlood flood-opacity="0" result="BackgroundImageFix"/>
<feColorMatrix in="SourceAlpha" type="matrix" values="0 0 0 0 0 0 0 0 0 0 0 0 0 0 0 0 0 0 127 0"/>
<feOffset dy="4"/>
<feGaussianBlur stdDeviation="2"/>
<feColorMatrix type="matrix" values="0 0 0 0 0 0 0 0 0 0 0 0 0 0 0 0 0 0 0.25 0"/>
<feBlend mode="normal" in2="BackgroundImageFix" result="effect1_dropShadow"/>
<feBlend mode="normal" in="SourceGraphic" in2="effect1_dropShadow" result="shape"/>
</filter>
</defs>
</svg>
